<?xml version="1.0" encoding="UTF-8" standalone="no"?>
<!-- Created with Inkscape (http://www.inkscape.org/) -->

<svg
   width="308"
   height="140"
   viewBox="0 0 81.49168 37.041673"
   version="1.1"
   id="svg5"
   xml:space="preserve"
   inkscape:version="1.2.2 (732a01da63, 2022-12-09)"
   sodipodi:docname="logo.svg"
   inkscape:export-filename="desenho.png"
   inkscape:export-xdpi="96"
   inkscape:export-ydpi="96"
   xmlns:inkscape="http://www.inkscape.org/namespaces/inkscape"
   xmlns:sodipodi="http://sodipodi.sourceforge.net/DTD/sodipodi-0.dtd"
   xmlns="http://www.w3.org/2000/svg"
   xmlns:svg="http://www.w3.org/2000/svg"><sodipodi:namedview
     id="namedview7"
     pagecolor="#b0b0b0"
     bordercolor="#1aff0d"
     borderopacity="1"
     inkscape:showpageshadow="false"
     inkscape:pageopacity="0"
     inkscape:pagecheckerboard="true"
     inkscape:deskcolor="#c6c6c6"
     inkscape:document-units="mm"
     showgrid="false"
     inkscape:zoom="3.7575"
     inkscape:cx="48.436461"
     inkscape:cy="38.190287"
     inkscape:window-width="1920"
     inkscape:window-height="1001"
     inkscape:window-x="-9"
     inkscape:window-y="-9"
     inkscape:window-maximized="1"
     inkscape:current-layer="text649" /><defs
     id="defs2"><mask
       maskUnits="userSpaceOnUse"
       id="mask911"><rect
         style="fill:#ffffff;fill-opacity:1;stroke-width:0.261625"
         id="rect913"
         width="211.65829"
         height="92.524544"
         x="39.770271"
         y="64.171951" /></mask></defs><g
     inkscape:label="Camada 1"
     inkscape:groupmode="layer"
     id="layer1"><g
       id="g430"
       transform="translate(0.51908168,-4.5172671)"><path
         style="fill-opacity:1;stroke:none;stroke-width:0.0397809px;stroke-linecap:butt;stroke-linejoin:miter;stroke-opacity:1"
         d="m 14.239795,8.7314263 c 0,0 0.650511,-1.7951487 0.629337,-3.2879251 0,-0.9214067 -1.285735,-0.9105493 -1.285735,0 -0.04235,1.6833436 0.656398,3.2879251 0.656398,3.2879251 z"
         id="path2818"
         sodipodi:nodetypes="cccc" /><path
         style="fill-opacity:1;stroke:none;stroke-width:0.0397809px;stroke-linecap:butt;stroke-linejoin:miter;stroke-opacity:1"
         d="m 19.557341,9.5988944 c 0,0 1.460933,-1.2293889 2.188984,-2.5327581 C 22.207028,6.2681746 21.08812,5.6347099 20.632846,6.4232688 19.754498,7.8599121 19.557341,9.5988944 19.557341,9.5988944 Z"
         id="path2820"
         sodipodi:nodetypes="cccc" /><path
         style="fill-opacity:1;stroke:none;stroke-width:0.0397809px;stroke-linecap:butt;stroke-linejoin:miter;stroke-opacity:1"
         d="m 23.192737,13.082733 c 0,0 1.879899,-0.334216 3.162094,-1.098941 0.797962,-0.460704 0.145691,-1.568754 -0.642867,-1.11348 -1.478993,0.804996 -2.519227,2.212421 -2.519227,2.212421 z"
         id="path2824"
         sodipodi:nodetypes="cccc" /><path
         style="fill-opacity:1;stroke:none;stroke-width:0.0397809px;stroke-linecap:butt;stroke-linejoin:miter;stroke-opacity:1"
         d="m 5.6996364,13.082733 c 0,0 -1.879899,-0.334216 -3.162094,-1.098941 -0.797962,-0.460704 -0.145691,-1.568754 0.642867,-1.11348 1.478993,0.804996 2.519227,2.212421 2.519227,2.212421 z"
         id="path2826"
         sodipodi:nodetypes="cccc" /><path
         style="fill-opacity:1;stroke:none;stroke-width:0.0397809px;stroke-linecap:butt;stroke-linejoin:miter;stroke-opacity:1"
         d="m 8.8991257,9.5988944 c 0,0 -1.460933,-1.2293889 -2.188984,-2.5327581 -0.4607028,-0.7979617 0.658205,-1.4314264 1.113479,-0.6428675 0.878348,1.4366433 1.075505,3.1756256 1.075505,3.1756256 z"
         id="path2837"
         sodipodi:nodetypes="cccc" /><path
         style="fill:none;stroke:#ffffff;stroke-width:0.264583px;stroke-linecap:butt;stroke-linejoin:miter;stroke-opacity:1"
         d="m 14.15336,35.629852 c -0.771584,3.961135 1.467524,5.496904 4.574961,5.556432 2.428021,0.04651 5.513958,-1.37419 5.748177,-4.27896 0.276564,-3.429915 -2.373781,-7.077626 2.527551,-11.998114"
         id="path2854"
         sodipodi:nodetypes="cssc" /><path
         style="fill:none;stroke:#ffffff;stroke-width:0.264583px;stroke-linecap:butt;stroke-linejoin:miter;stroke-opacity:1"
         d="m 73.6362,25.120453 c 1.097925,-1.685405 2.440781,-1.835876 2.828062,-3.631452 0.1897,-0.879519 0.02054,-1.751813 -0.45561,-3.053478"
         id="path5038"
         sodipodi:nodetypes="csc" /><text
         xml:space="preserve"
         style="font-style:normal;font-variant:normal;font-weight:normal;font-stretch:normal;font-size:27.2392px;line-height:1.25;font-family:'French Script MT';-inkscape-font-specification:'French Script MT, Normal';font-variant-ligatures:normal;font-variant-caps:normal;font-variant-numeric:normal;font-variant-east-asian:normal;fill:#ffcb00;fill-opacity:1;stroke:none;stroke-width:0.425613"
         x="26.707899"
         y="27.130951"
         id="text487"><tspan
           sodipodi:role="line"
           id="tspan485"
           style="font-style:normal;font-variant:normal;font-weight:normal;font-stretch:normal;font-size:27.2392px;font-family:'French Script MT';-inkscape-font-specification:'French Script MT, Normal';font-variant-ligatures:normal;font-variant-caps:normal;font-variant-numeric:normal;font-variant-east-asian:normal;fill:#ffcb00;fill-opacity:1;stroke-width:0.425613"
           x="26.707899"
           y="27.130951">ascesa</tspan></text><g
         aria-label="Lightbulb"
         id="text649"
         style="font-weight:900;font-size:27.3491px;line-height:1.25;font-family:'Font Awesome 6 Free';-inkscape-font-specification:'Font Awesome 6 Free Heavy';fill:#ffcb00;stroke-width:0.683732"><path
           d="m 19.834295,23.438621 c 0.747827,-1.068324 1.228573,-2.403729 1.228573,-3.899383 0,-3.739135 -3.098141,-6.837275 -6.837275,-6.837275 -3.792551,0 -6.8372754,3.09814 -6.8372754,6.837275 0,1.495654 0.4273297,2.831059 1.1751566,3.899383 0.2136649,0.320497 0.4273297,0.640995 0.6944108,0.961492 0.6944107,0.961492 1.495654,2.083232 2.136648,3.204973 0.534163,1.014908 0.85466,2.083232 0.961492,3.044724 H 9.7920471 C 9.6317985,30.008815 9.4715498,29.421237 9.1510526,28.833658 8.6168904,27.872167 7.9758959,26.964091 7.2814852,26.056015 7.0144041,25.682102 6.7473231,25.308188 6.480242,24.934275 5.4119178,23.385205 4.8243394,21.569054 4.8243394,19.539238 c 0,-5.181373 4.1664645,-9.401253 9.4012536,-9.401253 5.181372,0 9.401253,4.21988 9.401253,9.401253 0,2.029816 -0.640995,3.845967 -1.709319,5.395037 -0.267081,0.373913 -0.534162,0.747827 -0.801243,1.12174 -0.694411,0.908076 -1.335405,1.816152 -1.869568,2.777643 -0.320497,0.587579 -0.480745,1.175157 -0.640994,1.816152 h -2.563978 c 0.160248,-0.961492 0.427329,-2.029816 0.961492,-3.044724 0.640994,-1.121741 1.442237,-2.243481 2.136648,-3.204973 0.267081,-0.320497 0.480746,-0.640995 0.694411,-0.961492 z M 14.225593,16.97526 c -1.442238,0 -2.563979,1.175156 -2.563979,2.563978 0,0.480746 -0.427329,0.854659 -0.854659,0.854659 -0.480746,0 -0.8546593,-0.373913 -0.8546593,-0.854659 0,-2.350314 1.8695673,-4.273297 4.2732973,-4.273297 0.427329,0 0.854659,0.427329 0.854659,0.854659 0,0.480746 -0.42733,0.85466 -0.854659,0.85466 z m 0,20.511825 c -2.40373,0 -4.2732973,-1.869568 -4.2732973,-4.273297 v -0.85466 H 18.49889 v 0.85466 c 0,2.403729 -1.922984,4.273297 -4.273297,4.273297 z"
           style="font-weight:normal;-inkscape-font-specification:'Font Awesome 6 Free'"
           id="path405" /></g><g
         aria-label="plug"
         transform="rotate(-21.155396,-41.067344,-22.429282)"
         id="text5036"
         style="font-size:3.06123px;line-height:1.25;fill:#ffffff;stroke-width:0.0765309"><path
           d="m 52.791823,55.132261 c -0.107622,0 -0.191327,0.08968 -0.191327,0.191326 v 0.573981 h 0.382654 v -0.573981 c 0,-0.101642 -0.08969,-0.191326 -0.191327,-0.191326 z m 1.147961,0 c -0.107621,0 -0.191327,0.08968 -0.191327,0.191326 v 0.573981 h 0.382654 v -0.573981 c 0,-0.101642 -0.08968,-0.191326 -0.191327,-0.191326 z m -1.530615,0.956634 c -0.107621,0 -0.191327,0.08968 -0.191327,0.191327 0,0.107621 0.08371,0.191327 0.191327,0.191327 v 0.191327 c 0,0.466359 0.328843,0.849013 0.765307,0.938697 v 0.400591 c 0,0.107621 0.08371,0.191327 0.191327,0.191327 0.101643,0 0.191327,-0.08371 0.191327,-0.191327 v -0.400591 c 0.436465,-0.08968 0.765308,-0.472338 0.765308,-0.938697 v -0.191327 c 0.101642,0 0.191327,-0.08371 0.191327,-0.191327 0,-0.101643 -0.08969,-0.191327 -0.191327,-0.191327 z"
           style="font-weight:900;font-family:'Font Awesome 6 Free';-inkscape-font-specification:'Font Awesome 6 Free Heavy'"
           id="path354" /></g></g></g></svg>
